<svg id="visual" viewBox="0 0 1000 600" width="1000" height="600" xmlns="http://www.w3.org/2000/svg" xmlns:xlink="http://www.w3.org/1999/xlink" version="1.1"><rect x="0" y="0" width="1000" height="600" fill="#C3C7F4"></rect><g transform="translate(1016.1444052277585 -45.844329831445464)"><path d="M234.5 -345.4C312.6 -314.7 390.5 -264.3 405.5 -195.7C420.6 -127.1 372.7 -40.2 360 52.1C347.3 144.4 369.8 242.1 339.4 315.3C309 388.4 225.8 437 137 460C48.3 482.9 -46 480.4 -112.6 436.6C-179.2 392.8 -218.1 307.7 -281.3 240.5C-344.5 173.3 -432.1 124 -440.1 63.7C-448 3.4 -376.4 -67.9 -325 -135.1C-273.6 -202.4 -242.5 -265.7 -191.7 -308.8C-140.9 -352 -70.5 -375 3.9 -381C78.2 -387 156.4 -376.1 234.5 -345.4" fill="#fae7fb"></path></g></svg>